<svg width="111" height="111" viewBox="0 0 111 111" fill="none" xmlns="http://www.w3.org/2000/svg">
<path d="M87 56.0049L77 50.2314V61.7784L87 56.0049ZM23 56.0049L33 61.7784V50.2314L23 56.0049ZM78 56.0049V55.0049L32 55.0049V56.0049V57.0049L78 57.0049V56.0049Z" fill="black"/>
<path d="M55.005 88L60.7785 78H49.2315L55.005 88ZM55.005 24L49.2315 34H60.7785L55.005 24ZM55.005 79H56.005L56.005 33H55.005H54.005L54.005 79H55.005Z" fill="black"/>
<path d="M40.0109 20.992H42.1709V21.552H40.0109V24H39.3149V18.488H42.5629L42.4829 19.064H40.0109V20.992ZM47.4318 21.248C47.4318 22.1067 47.2558 22.7947 46.9038 23.312C46.5571 23.8293 46.0585 24.088 45.4078 24.088C44.7518 24.088 44.2505 23.8347 43.9038 23.328C43.5571 22.8213 43.3838 22.1307 43.3838 21.256C43.3838 20.696 43.4611 20.2 43.6158 19.768C43.7705 19.336 43.9998 19 44.3038 18.76C44.6078 18.52 44.9758 18.4 45.4078 18.4C46.0585 18.4 46.5571 18.6587 46.9038 19.176C47.2558 19.688 47.4318 20.3787 47.4318 21.248ZM46.7118 21.248C46.7118 20.496 46.6078 19.9307 46.3998 19.552C46.1918 19.1733 45.8611 18.984 45.4078 18.984C44.9545 18.984 44.6238 19.176 44.4158 19.56C44.2078 19.9387 44.1038 20.504 44.1038 21.256C44.1038 22.0027 44.2078 22.5653 44.4158 22.944C44.6291 23.3173 44.9598 23.504 45.4078 23.504C45.8611 23.504 46.1918 23.3173 46.3998 22.944C46.6078 22.5653 46.7118 22 46.7118 21.248ZM52.1007 20.04C52.1007 20.4347 51.978 20.7627 51.7327 21.024C51.4874 21.28 51.162 21.4587 50.7567 21.56L52.3967 24H51.5647L50.0527 21.64H49.3087V24H48.6207V18.488H50.0287C50.7114 18.488 51.226 18.6187 51.5727 18.88C51.9247 19.1413 52.1007 19.528 52.1007 20.04ZM51.3647 20.04C51.3647 19.688 51.2634 19.4347 51.0607 19.28C50.858 19.1253 50.5407 19.048 50.1087 19.048H49.3087V21.096H50.1167C50.5274 21.096 50.8367 21.0133 51.0447 20.848C51.258 20.6773 51.3647 20.408 51.3647 20.04ZM56.5296 24H55.6176L54.9856 19.84L54.3456 24H53.4096L52.6416 18.488H53.3376L53.9216 23.24L54.5856 19.128H55.4336L56.0656 23.24L56.7216 18.488H57.3616L56.5296 24ZM58.6864 22.592L58.2464 24H57.5584L59.3584 18.488H60.2384L62.0304 24H61.3104L60.8704 22.592H58.6864ZM60.6864 22.016L59.7824 19.08L58.8704 22.016H60.6864ZM66.4913 20.04C66.4913 20.4347 66.3686 20.7627 66.1233 21.024C65.878 21.28 65.5526 21.4587 65.1473 21.56L66.7873 24H65.9553L64.4433 21.64H63.6993V24H63.0113V18.488H64.4193C65.102 18.488 65.6166 18.6187 65.9633 18.88C66.3153 19.1413 66.4913 19.528 66.4913 20.04ZM65.7553 20.04C65.7553 19.688 65.654 19.4347 65.4513 19.28C65.2486 19.1253 64.9313 19.048 64.4993 19.048H63.6993V21.096H64.5073C64.918 21.096 65.2273 21.0133 65.4353 20.848C65.6486 20.6773 65.7553 20.408 65.7553 20.04ZM71.4162 21.216C71.4162 22.2613 71.1762 22.9867 70.6962 23.392C70.2162 23.7973 69.6242 24 68.9202 24H67.6562V18.488H68.8322C69.6055 18.488 70.2295 18.6827 70.7042 19.072C71.1789 19.4613 71.4162 20.176 71.4162 21.216ZM70.6722 21.216C70.6722 20.6187 70.5895 20.1627 70.4242 19.848C70.2642 19.528 70.0642 19.3173 69.8242 19.216C69.5842 19.1093 69.3095 19.056 69.0002 19.056H68.3522V23.44H69.0082C69.4829 23.44 69.8775 23.2773 70.1922 22.952C70.5122 22.6213 70.6722 22.0427 70.6722 21.216Z" fill="black"/>
<path d="M91.3038 55.04C91.3038 55.4347 91.1811 55.7627 90.9358 56.024C90.6905 56.28 90.3651 56.4587 89.9598 56.56L91.5998 59H90.7678L89.2558 56.64H88.5118V59H87.8238V53.488H89.2318C89.9145 53.488 90.4291 53.6187 90.7758 53.88C91.1278 54.1413 91.3038 54.528 91.3038 55.04ZM90.5678 55.04C90.5678 54.688 90.4665 54.4347 90.2638 54.28C90.0611 54.1253 89.7438 54.048 89.3118 54.048H88.5118V56.096H89.3198C89.7305 56.096 90.0398 56.0133 90.2478 55.848C90.4611 55.6773 90.5678 55.408 90.5678 55.04ZM95.7807 54.048H94.5567V58.448H95.7807V59H92.6287V58.448H93.8527V54.048H92.6287V53.488H95.7807V54.048ZM99.1136 59.088C98.4416 59.088 97.9136 58.848 97.5296 58.368C97.1509 57.8827 96.9616 57.1733 96.9616 56.24C96.9616 55.632 97.0682 55.1147 97.2816 54.688C97.4949 54.2613 97.7776 53.9413 98.1296 53.728C98.4816 53.5093 98.8629 53.4 99.2736 53.4C99.6202 53.4 99.9109 53.448 100.146 53.544C100.38 53.64 100.612 53.7947 100.842 54.008L100.426 54.44C100.255 54.2853 100.076 54.1707 99.8896 54.096C99.7082 54.0213 99.5029 53.984 99.2736 53.984C98.8256 53.984 98.4522 54.1627 98.1536 54.52C97.8549 54.8773 97.7056 55.4507 97.7056 56.24C97.7056 57.024 97.8256 57.5973 98.0656 57.96C98.3109 58.3227 98.6789 58.504 99.1696 58.504C99.5589 58.504 99.9082 58.416 100.218 58.24V56.568H99.1376L99.0576 55.984H100.914V58.608C100.636 58.7627 100.356 58.8827 100.074 58.968C99.7962 59.048 99.4762 59.088 99.1136 59.088ZM104.838 56.384H102.758V59H102.062V53.488H102.758V55.816H104.838V53.488H105.534V59H104.838V56.384ZM108.931 59H108.235V54.088H106.515V53.488H110.667L110.595 54.088H108.931V59Z" fill="black"/>
<path d="M40.6325 92.432C40.6325 92.9867 40.4325 93.3867 40.0325 93.632C39.6378 93.8773 39.1498 94 38.5685 94H37.0805V88.488H38.4405C39.0005 88.488 39.4645 88.5973 39.8325 88.816C40.2058 89.0293 40.3925 89.384 40.3925 89.88C40.3925 90.2107 40.2938 90.4773 40.0965 90.68C39.8992 90.8773 39.6538 91.0107 39.3605 91.08C40.2085 91.224 40.6325 91.6747 40.6325 92.432ZM39.6805 89.92C39.6805 89.616 39.5872 89.3973 39.4005 89.264C39.2138 89.1253 38.9472 89.056 38.6005 89.056H37.7765V90.832H38.6645C39.3418 90.832 39.6805 90.528 39.6805 89.92ZM39.8965 92.456C39.8965 92.0667 39.7898 91.7947 39.5765 91.64C39.3685 91.4853 39.0805 91.408 38.7125 91.408H37.7765V93.424H38.6885C39.0245 93.424 39.3098 93.3547 39.5445 93.216C39.7792 93.0773 39.8965 92.824 39.8965 92.456ZM42.3974 92.592L41.9574 94H41.2694L43.0694 88.488H43.9494L45.7414 94H45.0214L44.5814 92.592H42.3974ZM44.3974 92.016L43.4934 89.08L42.5814 92.016H44.3974ZM48.7703 88.4C49.1116 88.4 49.4049 88.4453 49.6503 88.536C49.8956 88.6213 50.1356 88.7547 50.3703 88.936L49.9783 89.392C49.6529 89.12 49.2663 88.984 48.8183 88.984C48.3223 88.984 47.9169 89.1653 47.6023 89.528C47.2929 89.8853 47.1383 90.456 47.1383 91.24C47.1383 92.0187 47.2903 92.5893 47.5943 92.952C47.8983 93.3147 48.3036 93.496 48.8103 93.496C49.0876 93.496 49.3249 93.456 49.5223 93.376C49.7196 93.296 49.9089 93.184 50.0903 93.04L50.4503 93.488C50.0396 93.888 49.4903 94.088 48.8023 94.088C48.3489 94.088 47.9409 93.9787 47.5783 93.76C47.2156 93.536 46.9303 93.2107 46.7223 92.784C46.5143 92.3573 46.4103 91.8427 46.4103 91.24C46.4103 90.6427 46.5143 90.1307 46.7223 89.704C46.9356 89.272 47.2209 88.9467 47.5783 88.728C47.9409 88.5093 48.3383 88.4 48.7703 88.4ZM51.5431 94V88.488H52.2391V94H51.5431ZM54.4391 88.488H55.2471L53.0951 91.016L55.3991 94H54.5271L52.2791 91.056L54.4391 88.488ZM59.428 94H58.516L57.884 89.84L57.244 94H56.308L55.54 88.488H56.236L56.82 93.24L57.484 89.128H58.332L58.964 93.24L59.62 88.488H60.26L59.428 94ZM61.5849 92.592L61.1449 94H60.4569L62.2569 88.488H63.1369L64.9289 94H64.2089L63.7689 92.592H61.5849ZM63.5849 92.016L62.6809 89.08L61.7689 92.016H63.5849ZM69.3898 90.04C69.3898 90.4347 69.2671 90.7627 69.0218 91.024C68.7764 91.28 68.4511 91.4587 68.0458 91.56L69.6858 94H68.8538L67.3418 91.64H66.5978V94H65.9098V88.488H67.3178C68.0004 88.488 68.5151 88.6187 68.8618 88.88C69.2138 89.1413 69.3898 89.528 69.3898 90.04ZM68.6538 90.04C68.6538 89.688 68.5524 89.4347 68.3498 89.28C68.1471 89.1253 67.8298 89.048 67.3978 89.048H66.5978V91.096H67.4058C67.8164 91.096 68.1258 91.0133 68.3338 90.848C68.5471 90.6773 68.6538 90.408 68.6538 90.04ZM74.3146 91.216C74.3146 92.2613 74.0746 92.9867 73.5946 93.392C73.1146 93.7973 72.5226 94 71.8186 94H70.5546V88.488H71.7306C72.504 88.488 73.128 88.6827 73.6026 89.072C74.0773 89.4613 74.3146 90.176 74.3146 91.216ZM73.5706 91.216C73.5706 90.6187 73.488 90.1627 73.3226 89.848C73.1626 89.528 72.9626 89.3173 72.7226 89.216C72.4826 89.1093 72.208 89.056 71.8986 89.056H71.2506V93.44H71.9066C72.3813 93.44 72.776 93.2773 73.0906 92.952C73.4106 92.6213 73.5706 92.0427 73.5706 91.216Z" fill="black"/>
<path d="M4.49425 53.488H5.18225V58.384H7.70225L7.61425 59H4.49425V53.488ZM9.89913 55.92H11.9471V56.488H9.89913V58.44H12.4111V59H9.21113V53.488H12.3391L12.2591 54.064H9.89913V55.92ZM14.8 55.992H16.96V56.552H14.8V59H14.104V53.488H17.352L17.272 54.064H14.8V55.992ZM20.5329 59H19.8369V54.088H18.1169V53.488H22.2689L22.1969 54.088H20.5329V59Z" fill="black"/>
</svg>
