<svg width="100" height="100" viewBox="0 0 100 100" fill="none" xmlns="http://www.w3.org/2000/svg">
<g clip-path="url(#clip0_2001_2)">
<circle cx="50" cy="50" r="45" fill="#94AAFF" stroke="#222E5C" stroke-width="10"/>
<circle cx="50" cy="50" r="25" fill="#222E5C"/>
<path d="M45 20H55L57 26V74L55 80H45L43 74V26L45 20Z" fill="#222E5C"/>
<path d="M20 55V45L26 43H74L80 45V55L74 57H26L20 55Z" fill="#222E5C"/>
<path d="M25.2513 32.3223L32.3223 25.2513L37.9792 28.0797L71.9203 62.0208L74.7487 67.6777L67.6777 74.7487L62.0208 71.9203L28.0797 37.9792L25.2513 32.3223Z" fill="#222E5C"/>
<path d="M32.3223 74.7487L25.2513 67.6777L28.0797 62.0208L62.0208 28.0797L67.6777 25.2513L74.7487 32.3223L71.9203 37.9792L37.9792 71.9203L32.3223 74.7487Z" fill="#222E5C"/>
<circle cx="50" cy="50" r="10" fill="#94AAFF"/>
</g>
<defs>
<clipPath id="clip0_2001_2">
<rect width="100" height="100" fill="white"/>
</clipPath>
</defs>
</svg>
