<svg width="76" height="76" viewBox="0 0 76 76" fill="none" xmlns="http://www.w3.org/2000/svg">
<circle cx="38" cy="38" r="38" fill="#DDF5FF"/>
<ellipse cx="38" cy="39" rx="32" ry="18" fill="#FFDC52"/>
<path d="M10 27H66L70 31V47L66 51H10L6 47V31L10 27Z" fill="#B7B7B7"/>
<path d="M18.5 27H26.5L18.5 51H10.5L18.5 27Z" fill="white" fill-opacity="0.25"/>
<path d="M43.5 27H51.5L43.5 51H35.5L43.5 27Z" fill="white" fill-opacity="0.25"/>
<path d="M44.5 27H46.5L38.5 51H36.5L44.5 27Z" fill="white" fill-opacity="0.25"/>
<path d="M20.5 27H22.5L14.5 51H12.5L20.5 27Z" fill="white" fill-opacity="0.25"/>
<path d="M65.5 27H66L70 31V37.5L65.5 51H57.5L65.5 27Z" fill="white" fill-opacity="0.25"/>
<path d="M12 31H64L66 33V45L64 47H12L10 45V33L12 31Z" fill="black"/>
<path d="M19.5 31H25L19.5 47H14L19.5 31Z" fill="white" fill-opacity="0.125"/>
<path d="M44.5 31H50L44.5 47H39L44.5 31Z" fill="white" fill-opacity="0.125"/>
<path d="M66 33V45L64 47H61L66 33Z" fill="white" fill-opacity="0.125"/>
<rect x="18" y="31" width="8" height="16" fill="#A0FF65"/>
<rect x="50" y="31" width="8" height="16" fill="#A0FF65"/>
<rect x="20" y="34" width="2" height="4" fill="#DEFFCA"/>
<rect x="52" y="34" width="2" height="4" fill="#DEFFCA"/>
</svg>
