<svg width="32" height="32" viewBox="0 0 32 32" fill="none" xmlns="http://www.w3.org/2000/svg">
<path d="M11.7588 7.33594C12.2819 7.02626 13 7.36276 13 8.12598V23.874C13 24.5894 12.3692 24.9301 11.8594 24.7148L11.7588 24.6641C10.1612 23.7183 8.17854 22.3832 6.60742 20.8252C5.00843 19.2395 4 17.586 4 16C4 14.414 5.00843 12.7605 6.60742 11.1748C7.98231 9.81142 9.67216 8.61846 11.1436 7.70801L11.7588 7.33594Z" fill="#1A1A1A" fill-opacity="0.6" stroke="#DFDFDF" stroke-width="2"/>
<path d="M20.2412 7.33594C19.7181 7.02626 19 7.36276 19 8.12598V23.874C19 24.5894 19.6308 24.9301 20.1406 24.7148L20.2412 24.6641C21.8388 23.7183 23.8215 22.3832 25.3926 20.8252C26.9916 19.2395 28 17.586 28 16C28 14.414 26.9916 12.7605 25.3926 11.1748C24.0177 9.81142 22.3278 8.61846 20.8564 7.70801L20.2412 7.33594Z" fill="#1A1A1A" fill-opacity="0.6" stroke="#DFDFDF" stroke-width="2"/>
</svg>
